<mxfile host="65bd71144e">
    <diagram id="bvMxqJy8REenpndCrTQX" name="Page-1">
        <mxGraphModel dx="1134" dy="1478" grid="1" gridSize="10" guides="1" tooltips="1" connect="1" arrows="1" fold="1" page="1" pageScale="1" pageWidth="850" pageHeight="1100" background="none" math="0" shadow="1">
            <root>
                <mxCell id="0"/>
                <mxCell id="1" parent="0"/>
                <mxCell id="8" value="Topic 202.1" style="ellipse;whiteSpace=wrap;html=1;align=center;treeFolding=1;treeMoving=1;newEdgeStyle={&quot;edgeStyle&quot;:&quot;entityRelationEdgeStyle&quot;,&quot;startArrow&quot;:&quot;none&quot;,&quot;endArrow&quot;:&quot;none&quot;,&quot;segment&quot;:10,&quot;curved&quot;:1};fillColor=#647687;fontColor=#CCCCCC;strokeColor=#314354;" parent="1" vertex="1">
                    <mxGeometry x="380" y="-400" width="130" height="60" as="geometry"/>
                </mxCell>
                <mxCell id="11" value="SysV&lt;br&gt;Init" style="whiteSpace=wrap;html=1;rounded=1;arcSize=50;align=center;verticalAlign=middle;strokeWidth=1;autosize=1;spacing=4;treeFolding=1;treeMoving=1;newEdgeStyle={&quot;edgeStyle&quot;:&quot;entityRelationEdgeStyle&quot;,&quot;startArrow&quot;:&quot;none&quot;,&quot;endArrow&quot;:&quot;none&quot;,&quot;segment&quot;:10,&quot;curved&quot;:1};fillColor=#008a00;fontColor=#ffffff;strokeColor=#005700;" parent="1" vertex="1">
                    <mxGeometry x="410" y="-520" width="70" height="40" as="geometry"/>
                </mxCell>
                <mxCell id="14" value="systemd" style="whiteSpace=wrap;html=1;rounded=1;arcSize=50;align=center;verticalAlign=middle;strokeWidth=1;autosize=1;spacing=4;treeFolding=1;treeMoving=1;newEdgeStyle={&quot;edgeStyle&quot;:&quot;entityRelationEdgeStyle&quot;,&quot;startArrow&quot;:&quot;none&quot;,&quot;endArrow&quot;:&quot;none&quot;,&quot;segment&quot;:10,&quot;curved&quot;:1};fillColor=#0050ef;fontColor=#ffffff;strokeColor=#001DBC;" parent="1" vertex="1">
                    <mxGeometry x="390" y="-260" width="90" height="30" as="geometry"/>
                </mxCell>
                <mxCell id="16" value="runlevel" style="whiteSpace=wrap;html=1;rounded=1;arcSize=50;align=center;verticalAlign=middle;strokeWidth=1;autosize=1;spacing=4;treeFolding=1;treeMoving=1;newEdgeStyle={&quot;edgeStyle&quot;:&quot;entityRelationEdgeStyle&quot;,&quot;startArrow&quot;:&quot;none&quot;,&quot;endArrow&quot;:&quot;none&quot;,&quot;segment&quot;:10,&quot;curved&quot;:1};fillColor=#647687;fontColor=#CCCCCC;strokeColor=#314354;" parent="1" vertex="1">
                    <mxGeometry x="605" y="-480" width="80" height="30" as="geometry"/>
                </mxCell>
                <mxCell id="98" value="update-rc.d" style="whiteSpace=wrap;html=1;rounded=1;arcSize=50;align=center;verticalAlign=middle;strokeWidth=1;autosize=1;spacing=4;treeFolding=1;treeMoving=1;newEdgeStyle={&quot;edgeStyle&quot;:&quot;entityRelationEdgeStyle&quot;,&quot;startArrow&quot;:&quot;none&quot;,&quot;endArrow&quot;:&quot;none&quot;,&quot;segment&quot;:10,&quot;curved&quot;:1};fillColor=#647687;fontColor=#CCCCCC;strokeColor=#314354;" parent="1" vertex="1">
                    <mxGeometry x="559.9999999999999" y="-670" width="100" height="30" as="geometry"/>
                </mxCell>
                <mxCell id="100" value="telinit&lt;br&gt;init" style="whiteSpace=wrap;html=1;rounded=1;arcSize=50;align=center;verticalAlign=middle;strokeWidth=1;autosize=1;spacing=4;treeFolding=1;treeMoving=1;newEdgeStyle={&quot;edgeStyle&quot;:&quot;entityRelationEdgeStyle&quot;,&quot;startArrow&quot;:&quot;none&quot;,&quot;endArrow&quot;:&quot;none&quot;,&quot;segment&quot;:10,&quot;curved&quot;:1};fillColor=#647687;fontColor=#CCCCCC;strokeColor=#314354;" parent="1" vertex="1">
                    <mxGeometry x="219.9999999999999" y="-490" width="70" height="40" as="geometry"/>
                </mxCell>
                <mxCell id="103" value="" style="edgeStyle=entityRelationEdgeStyle;startArrow=none;endArrow=none;segment=10;curved=1;exitX=0.408;exitY=-0.033;exitDx=0;exitDy=0;fillColor=#647687;strokeColor=#314354;shadow=0;fontColor=#CCCCCC;exitPerimeter=0;entryX=0.5;entryY=1;entryDx=0;entryDy=0;" parent="1" source="8" target="11" edge="1">
                    <mxGeometry relative="1" as="geometry">
                        <mxPoint x="595" y="-475" as="sourcePoint"/>
                        <mxPoint x="437" y="-470" as="targetPoint"/>
                    </mxGeometry>
                </mxCell>
                <mxCell id="105" value="" style="edgeStyle=entityRelationEdgeStyle;startArrow=none;endArrow=none;segment=10;curved=1;exitX=0.5;exitY=1;exitDx=0;exitDy=0;entryX=0.5;entryY=0;entryDx=0;entryDy=0;fillColor=#647687;strokeColor=#314354;shadow=0;fontColor=#CCCCCC;" parent="1" source="8" target="14" edge="1">
                    <mxGeometry relative="1" as="geometry">
                        <mxPoint x="480" y="-310" as="sourcePoint"/>
                        <mxPoint x="275" y="-390" as="targetPoint"/>
                    </mxGeometry>
                </mxCell>
                <mxCell id="106" value="" style="edgeStyle=entityRelationEdgeStyle;startArrow=none;endArrow=none;segment=10;curved=1;entryX=0;entryY=0.5;entryDx=0;entryDy=0;fillColor=#647687;strokeColor=#314354;shadow=0;fontColor=#CCCCCC;" parent="1" source="11" target="16" edge="1">
                    <mxGeometry relative="1" as="geometry">
                        <mxPoint x="490" y="-300" as="sourcePoint"/>
                        <mxPoint x="285" y="-380" as="targetPoint"/>
                    </mxGeometry>
                </mxCell>
                <mxCell id="108" value="" style="edgeStyle=entityRelationEdgeStyle;startArrow=none;endArrow=none;segment=10;curved=1;exitX=0;exitY=0.5;exitDx=0;exitDy=0;entryX=1;entryY=0.5;entryDx=0;entryDy=0;fillColor=#647687;strokeColor=#314354;shadow=0;fontColor=#CCCCCC;" parent="1" source="11" target="100" edge="1">
                    <mxGeometry relative="1" as="geometry">
                        <mxPoint x="500" y="-290" as="sourcePoint"/>
                        <mxPoint x="295" y="-370" as="targetPoint"/>
                    </mxGeometry>
                </mxCell>
                <mxCell id="109" value="" style="edgeStyle=entityRelationEdgeStyle;startArrow=none;endArrow=none;segment=10;curved=1;exitX=0;exitY=0.25;exitDx=0;exitDy=0;fillColor=#647687;strokeColor=#314354;shadow=0;fontColor=#CCCCCC;entryX=0.5;entryY=0;entryDx=0;entryDy=0;" parent="1" source="98" target="11" edge="1">
                    <mxGeometry relative="1" as="geometry">
                        <mxPoint x="510" y="-280" as="sourcePoint"/>
                        <mxPoint x="305" y="-360" as="targetPoint"/>
                    </mxGeometry>
                </mxCell>
                <mxCell id="110" value="runlevels" style="whiteSpace=wrap;html=1;rounded=1;arcSize=50;align=center;verticalAlign=middle;strokeWidth=1;autosize=1;spacing=4;treeFolding=1;treeMoving=1;newEdgeStyle={&quot;edgeStyle&quot;:&quot;entityRelationEdgeStyle&quot;,&quot;startArrow&quot;:&quot;none&quot;,&quot;endArrow&quot;:&quot;none&quot;,&quot;segment&quot;:10,&quot;curved&quot;:1};fillColor=#647687;fontColor=#CCCCCC;strokeColor=#314354;" vertex="1" parent="1">
                    <mxGeometry x="200" y="-580" width="90" height="30" as="geometry"/>
                </mxCell>
                <mxCell id="111" value="" style="edgeStyle=entityRelationEdgeStyle;startArrow=none;endArrow=none;segment=10;curved=1;exitX=0;exitY=0.25;exitDx=0;exitDy=0;fillColor=#647687;strokeColor=#314354;shadow=0;fontColor=#CCCCCC;entryX=1;entryY=0.75;entryDx=0;entryDy=0;" edge="1" parent="1" target="110" source="11">
                    <mxGeometry relative="1" as="geometry">
                        <mxPoint x="490" y="-545" as="sourcePoint"/>
                        <mxPoint x="599.5" y="-565" as="targetPoint"/>
                    </mxGeometry>
                </mxCell>
                <mxCell id="112" value="inittab" style="whiteSpace=wrap;html=1;rounded=1;arcSize=50;align=center;verticalAlign=middle;strokeWidth=1;autosize=1;spacing=4;treeFolding=1;treeMoving=1;newEdgeStyle={&quot;edgeStyle&quot;:&quot;entityRelationEdgeStyle&quot;,&quot;startArrow&quot;:&quot;none&quot;,&quot;endArrow&quot;:&quot;none&quot;,&quot;segment&quot;:10,&quot;curved&quot;:1};fillColor=#647687;fontColor=#CCCCCC;strokeColor=#314354;" vertex="1" parent="1">
                    <mxGeometry x="240" y="-660" width="70" height="30" as="geometry"/>
                </mxCell>
                <mxCell id="113" value="" style="edgeStyle=entityRelationEdgeStyle;startArrow=none;endArrow=none;segment=10;curved=1;exitX=0.5;exitY=0;exitDx=0;exitDy=0;fillColor=#647687;strokeColor=#314354;shadow=0;fontColor=#CCCCCC;entryX=1;entryY=0.75;entryDx=0;entryDy=0;" edge="1" parent="1" target="112" source="11">
                    <mxGeometry relative="1" as="geometry">
                        <mxPoint x="678.04" y="-421.98" as="sourcePoint"/>
                        <mxPoint x="692" y="-525" as="targetPoint"/>
                    </mxGeometry>
                </mxCell>
                <mxCell id="115" value="/etc/init.d/" style="whiteSpace=wrap;html=1;rounded=1;arcSize=50;align=center;verticalAlign=middle;strokeWidth=1;autosize=1;spacing=4;treeFolding=1;treeMoving=1;newEdgeStyle={&quot;edgeStyle&quot;:&quot;entityRelationEdgeStyle&quot;,&quot;startArrow&quot;:&quot;none&quot;,&quot;endArrow&quot;:&quot;none&quot;,&quot;segment&quot;:10,&quot;curved&quot;:1};fillColor=#647687;fontColor=#CCCCCC;strokeColor=#314354;" vertex="1" parent="1">
                    <mxGeometry x="320" y="-730" width="90" height="30" as="geometry"/>
                </mxCell>
                <mxCell id="116" value="" style="edgeStyle=entityRelationEdgeStyle;startArrow=none;endArrow=none;segment=10;curved=1;exitX=0.5;exitY=0;exitDx=0;exitDy=0;fillColor=#647687;strokeColor=#314354;shadow=0;fontColor=#CCCCCC;entryX=0.5;entryY=1;entryDx=0;entryDy=0;" edge="1" parent="1" target="115" source="11">
                    <mxGeometry relative="1" as="geometry">
                        <mxPoint x="550" y="-517" as="sourcePoint"/>
                        <mxPoint x="807" y="-507" as="targetPoint"/>
                    </mxGeometry>
                </mxCell>
                <mxCell id="118" value="/etc/rc*.d/" style="whiteSpace=wrap;html=1;rounded=1;arcSize=50;align=center;verticalAlign=middle;strokeWidth=1;autosize=1;spacing=4;treeFolding=1;treeMoving=1;newEdgeStyle={&quot;edgeStyle&quot;:&quot;entityRelationEdgeStyle&quot;,&quot;startArrow&quot;:&quot;none&quot;,&quot;endArrow&quot;:&quot;none&quot;,&quot;segment&quot;:10,&quot;curved&quot;:1};fillColor=#647687;fontColor=#CCCCCC;strokeColor=#314354;" vertex="1" parent="1">
                    <mxGeometry x="460" y="-730" width="90" height="30" as="geometry"/>
                </mxCell>
                <mxCell id="119" value="" style="edgeStyle=entityRelationEdgeStyle;startArrow=none;endArrow=none;segment=10;curved=1;exitX=0.5;exitY=0;exitDx=0;exitDy=0;fillColor=#647687;strokeColor=#314354;shadow=0;fontColor=#CCCCCC;entryX=0.5;entryY=1;entryDx=0;entryDy=0;" edge="1" parent="1" target="118" source="11">
                    <mxGeometry relative="1" as="geometry">
                        <mxPoint x="500" y="-485" as="sourcePoint"/>
                        <mxPoint x="872" y="-457" as="targetPoint"/>
                    </mxGeometry>
                </mxCell>
                <mxCell id="120" value="chkconfig" style="whiteSpace=wrap;html=1;rounded=1;arcSize=50;align=center;verticalAlign=middle;strokeWidth=1;autosize=1;spacing=4;treeFolding=1;treeMoving=1;newEdgeStyle={&quot;edgeStyle&quot;:&quot;entityRelationEdgeStyle&quot;,&quot;startArrow&quot;:&quot;none&quot;,&quot;endArrow&quot;:&quot;none&quot;,&quot;segment&quot;:10,&quot;curved&quot;:1};fillColor=#647687;fontColor=#CCCCCC;strokeColor=#314354;" vertex="1" parent="1">
                    <mxGeometry x="599.9999999999999" y="-590" width="90" height="30" as="geometry"/>
                </mxCell>
                <mxCell id="121" value="" style="edgeStyle=entityRelationEdgeStyle;startArrow=none;endArrow=none;segment=10;curved=1;entryX=0;entryY=0.5;entryDx=0;entryDy=0;fillColor=#647687;strokeColor=#314354;shadow=0;fontColor=#CCCCCC;exitX=1;exitY=0.5;exitDx=0;exitDy=0;" edge="1" parent="1" target="120" source="11">
                    <mxGeometry relative="1" as="geometry">
                        <mxPoint x="445" y="-295" as="sourcePoint"/>
                        <mxPoint x="305" y="-360" as="targetPoint"/>
                    </mxGeometry>
                </mxCell>
                <mxCell id="124" value="systemd-delta" style="whiteSpace=wrap;html=1;rounded=1;arcSize=50;align=center;verticalAlign=middle;strokeWidth=1;autosize=1;spacing=4;treeFolding=1;treeMoving=1;newEdgeStyle={&quot;edgeStyle&quot;:&quot;entityRelationEdgeStyle&quot;,&quot;startArrow&quot;:&quot;none&quot;,&quot;endArrow&quot;:&quot;none&quot;,&quot;segment&quot;:10,&quot;curved&quot;:1};fillColor=#647687;fontColor=#CCCCCC;strokeColor=#314354;" vertex="1" parent="1">
                    <mxGeometry x="210" y="-320" width="120" height="30" as="geometry"/>
                </mxCell>
                <mxCell id="125" value="" style="edgeStyle=entityRelationEdgeStyle;startArrow=none;endArrow=none;segment=10;curved=1;exitX=0;exitY=0.25;exitDx=0;exitDy=0;entryX=1;entryY=0.5;entryDx=0;entryDy=0;fillColor=#647687;strokeColor=#314354;shadow=0;fontColor=#CCCCCC;" edge="1" parent="1" target="124" source="14">
                    <mxGeometry relative="1" as="geometry">
                        <mxPoint x="165" y="-360" as="sourcePoint"/>
                        <mxPoint x="-5" y="-410" as="targetPoint"/>
                    </mxGeometry>
                </mxCell>
                <mxCell id="126" value="systemctl" style="whiteSpace=wrap;html=1;rounded=1;arcSize=50;align=center;verticalAlign=middle;strokeWidth=1;autosize=1;spacing=4;treeFolding=1;treeMoving=1;newEdgeStyle={&quot;edgeStyle&quot;:&quot;entityRelationEdgeStyle&quot;,&quot;startArrow&quot;:&quot;none&quot;,&quot;endArrow&quot;:&quot;none&quot;,&quot;segment&quot;:10,&quot;curved&quot;:1};fillColor=#1ba1e2;fontColor=#ffffff;strokeColor=#006EAF;" vertex="1" parent="1">
                    <mxGeometry x="370" y="-150" width="90" height="30" as="geometry"/>
                </mxCell>
                <mxCell id="127" value="" style="edgeStyle=entityRelationEdgeStyle;startArrow=none;endArrow=none;segment=10;curved=1;exitX=0.5;exitY=1;exitDx=0;exitDy=0;entryX=0.5;entryY=0;entryDx=0;entryDy=0;fillColor=#647687;strokeColor=#314354;shadow=0;fontColor=#CCCCCC;" edge="1" parent="1" target="126" source="14">
                    <mxGeometry relative="1" as="geometry">
                        <mxPoint x="65" y="-280" as="sourcePoint"/>
                        <mxPoint x="-105" y="-330" as="targetPoint"/>
                    </mxGeometry>
                </mxCell>
                <mxCell id="128" value="un/systemd/system" style="whiteSpace=wrap;html=1;rounded=1;arcSize=50;align=center;verticalAlign=middle;strokeWidth=1;autosize=1;spacing=4;treeFolding=1;treeMoving=1;newEdgeStyle={&quot;edgeStyle&quot;:&quot;entityRelationEdgeStyle&quot;,&quot;startArrow&quot;:&quot;none&quot;,&quot;endArrow&quot;:&quot;none&quot;,&quot;segment&quot;:10,&quot;curved&quot;:1};fillColor=#647687;fontColor=#CCCCCC;strokeColor=#314354;" vertex="1" parent="1">
                    <mxGeometry x="605" y="-260" width="150" height="30" as="geometry"/>
                </mxCell>
                <mxCell id="129" value="" style="edgeStyle=entityRelationEdgeStyle;startArrow=none;endArrow=none;segment=10;curved=1;exitX=1;exitY=0.5;exitDx=0;exitDy=0;entryX=0;entryY=0.5;entryDx=0;entryDy=0;fillColor=#647687;strokeColor=#314354;shadow=0;fontColor=#CCCCCC;" edge="1" parent="1" target="128" source="14">
                    <mxGeometry relative="1" as="geometry">
                        <mxPoint x="755" y="-270" as="sourcePoint"/>
                        <mxPoint x="585" y="-320" as="targetPoint"/>
                    </mxGeometry>
                </mxCell>
                <mxCell id="130" value="/etc/systemd/system" style="whiteSpace=wrap;html=1;rounded=1;arcSize=50;align=center;verticalAlign=middle;strokeWidth=1;autosize=1;spacing=4;treeFolding=1;treeMoving=1;newEdgeStyle={&quot;edgeStyle&quot;:&quot;entityRelationEdgeStyle&quot;,&quot;startArrow&quot;:&quot;none&quot;,&quot;endArrow&quot;:&quot;none&quot;,&quot;segment&quot;:10,&quot;curved&quot;:1};fillColor=#647687;fontColor=#CCCCCC;strokeColor=#314354;" vertex="1" parent="1">
                    <mxGeometry x="565" y="-330" width="150" height="30" as="geometry"/>
                </mxCell>
                <mxCell id="131" value="" style="edgeStyle=entityRelationEdgeStyle;startArrow=none;endArrow=none;segment=10;curved=1;entryX=0;entryY=1;entryDx=0;entryDy=0;fillColor=#647687;strokeColor=#314354;shadow=0;fontColor=#CCCCCC;" edge="1" parent="1" target="130" source="14">
                    <mxGeometry relative="1" as="geometry">
                        <mxPoint x="475" y="-250" as="sourcePoint"/>
                        <mxPoint x="395" y="-295" as="targetPoint"/>
                    </mxGeometry>
                </mxCell>
                <mxCell id="132" value="/lib/systemd/system" style="whiteSpace=wrap;html=1;rounded=1;arcSize=50;align=center;verticalAlign=middle;strokeWidth=1;autosize=1;spacing=4;treeFolding=1;treeMoving=1;newEdgeStyle={&quot;edgeStyle&quot;:&quot;entityRelationEdgeStyle&quot;,&quot;startArrow&quot;:&quot;none&quot;,&quot;endArrow&quot;:&quot;none&quot;,&quot;segment&quot;:10,&quot;curved&quot;:1};fillColor=#647687;fontColor=#CCCCCC;strokeColor=#314354;" vertex="1" parent="1">
                    <mxGeometry x="565" y="-180" width="150" height="30" as="geometry"/>
                </mxCell>
                <mxCell id="133" value="" style="edgeStyle=entityRelationEdgeStyle;startArrow=none;endArrow=none;segment=10;curved=1;exitX=1;exitY=0.75;exitDx=0;exitDy=0;entryX=0;entryY=0;entryDx=0;entryDy=0;fillColor=#647687;strokeColor=#314354;shadow=0;fontColor=#CCCCCC;" edge="1" parent="1" target="132" source="14">
                    <mxGeometry relative="1" as="geometry">
                        <mxPoint x="502.98" y="-241" as="sourcePoint"/>
                        <mxPoint x="480" y="-288.99" as="targetPoint"/>
                    </mxGeometry>
                </mxCell>
                <mxCell id="135" value="stop" style="whiteSpace=wrap;html=1;rounded=1;arcSize=50;align=center;verticalAlign=middle;strokeWidth=1;autosize=1;spacing=4;treeFolding=1;treeMoving=1;newEdgeStyle={&quot;edgeStyle&quot;:&quot;entityRelationEdgeStyle&quot;,&quot;startArrow&quot;:&quot;none&quot;,&quot;endArrow&quot;:&quot;none&quot;,&quot;segment&quot;:10,&quot;curved&quot;:1};fillColor=#647687;fontColor=#CCCCCC;strokeColor=#314354;" vertex="1" parent="1">
                    <mxGeometry x="280" y="-220" width="60" height="30" as="geometry"/>
                </mxCell>
                <mxCell id="136" value="" style="edgeStyle=entityRelationEdgeStyle;startArrow=none;endArrow=none;segment=10;curved=1;exitX=0;exitY=0.25;exitDx=0;exitDy=0;entryX=1;entryY=0.5;entryDx=0;entryDy=0;fillColor=#647687;strokeColor=#314354;shadow=0;fontColor=#CCCCCC;" edge="1" parent="1" target="135" source="126">
                    <mxGeometry relative="1" as="geometry">
                        <mxPoint x="350" y="-175" as="sourcePoint"/>
                        <mxPoint x="-255" y="-350" as="targetPoint"/>
                    </mxGeometry>
                </mxCell>
                <mxCell id="137" value="start" style="whiteSpace=wrap;html=1;rounded=1;arcSize=50;align=center;verticalAlign=middle;strokeWidth=1;autosize=1;spacing=4;treeFolding=1;treeMoving=1;newEdgeStyle={&quot;edgeStyle&quot;:&quot;entityRelationEdgeStyle&quot;,&quot;startArrow&quot;:&quot;none&quot;,&quot;endArrow&quot;:&quot;none&quot;,&quot;segment&quot;:10,&quot;curved&quot;:1};fillColor=#647687;fontColor=#CCCCCC;strokeColor=#314354;" vertex="1" parent="1">
                    <mxGeometry x="215" y="-150" width="60" height="30" as="geometry"/>
                </mxCell>
                <mxCell id="138" value="" style="edgeStyle=entityRelationEdgeStyle;startArrow=none;endArrow=none;segment=10;curved=1;entryX=1;entryY=0.25;entryDx=0;entryDy=0;fillColor=#647687;strokeColor=#314354;shadow=0;fontColor=#CCCCCC;" edge="1" parent="1" target="137" source="126">
                    <mxGeometry relative="1" as="geometry">
                        <mxPoint x="350" y="-110" as="sourcePoint"/>
                        <mxPoint x="-270" y="-250" as="targetPoint"/>
                    </mxGeometry>
                </mxCell>
                <mxCell id="139" value="status" style="whiteSpace=wrap;html=1;rounded=1;arcSize=50;align=center;verticalAlign=middle;strokeWidth=1;autosize=1;spacing=4;treeFolding=1;treeMoving=1;newEdgeStyle={&quot;edgeStyle&quot;:&quot;entityRelationEdgeStyle&quot;,&quot;startArrow&quot;:&quot;none&quot;,&quot;endArrow&quot;:&quot;none&quot;,&quot;segment&quot;:10,&quot;curved&quot;:1};fillColor=#647687;fontColor=#CCCCCC;strokeColor=#314354;" vertex="1" parent="1">
                    <mxGeometry x="220" y="-90" width="70" height="30" as="geometry"/>
                </mxCell>
                <mxCell id="140" value="" style="edgeStyle=entityRelationEdgeStyle;startArrow=none;endArrow=none;segment=10;curved=1;exitX=0;exitY=0.5;exitDx=0;exitDy=0;entryX=0.5;entryY=0;entryDx=0;entryDy=0;fillColor=#647687;strokeColor=#314354;shadow=0;fontColor=#CCCCCC;" edge="1" parent="1" target="139" source="126">
                    <mxGeometry relative="1" as="geometry">
                        <mxPoint x="435" y="-140" as="sourcePoint"/>
                        <mxPoint x="-105" y="-240" as="targetPoint"/>
                    </mxGeometry>
                </mxCell>
                <mxCell id="141" value="enable" style="whiteSpace=wrap;html=1;rounded=1;arcSize=50;align=center;verticalAlign=middle;strokeWidth=1;autosize=1;spacing=4;treeFolding=1;treeMoving=1;newEdgeStyle={&quot;edgeStyle&quot;:&quot;entityRelationEdgeStyle&quot;,&quot;startArrow&quot;:&quot;none&quot;,&quot;endArrow&quot;:&quot;none&quot;,&quot;segment&quot;:10,&quot;curved&quot;:1};fillColor=#647687;fontColor=#CCCCCC;strokeColor=#314354;" vertex="1" parent="1">
                    <mxGeometry x="310" y="-50" width="80" height="30" as="geometry"/>
                </mxCell>
                <mxCell id="142" value="" style="edgeStyle=entityRelationEdgeStyle;startArrow=none;endArrow=none;segment=10;curved=1;exitX=0.367;exitY=1.033;exitDx=0;exitDy=0;entryX=0.5;entryY=0;entryDx=0;entryDy=0;fillColor=#647687;strokeColor=#314354;shadow=0;fontColor=#CCCCCC;exitPerimeter=0;" edge="1" parent="1" target="141" source="126">
                    <mxGeometry relative="1" as="geometry">
                        <mxPoint x="455" y="-110" as="sourcePoint"/>
                        <mxPoint x="-85" y="-210" as="targetPoint"/>
                    </mxGeometry>
                </mxCell>
                <mxCell id="143" value="disable" style="whiteSpace=wrap;html=1;rounded=1;arcSize=50;align=center;verticalAlign=middle;strokeWidth=1;autosize=1;spacing=4;treeFolding=1;treeMoving=1;newEdgeStyle={&quot;edgeStyle&quot;:&quot;entityRelationEdgeStyle&quot;,&quot;startArrow&quot;:&quot;none&quot;,&quot;endArrow&quot;:&quot;none&quot;,&quot;segment&quot;:10,&quot;curved&quot;:1};fillColor=#647687;fontColor=#CCCCCC;strokeColor=#314354;" vertex="1" parent="1">
                    <mxGeometry x="450" y="-50" width="80" height="30" as="geometry"/>
                </mxCell>
                <mxCell id="144" value="" style="edgeStyle=entityRelationEdgeStyle;startArrow=none;endArrow=none;segment=10;curved=1;exitX=0.75;exitY=1;exitDx=0;exitDy=0;entryX=0.5;entryY=0;entryDx=0;entryDy=0;fillColor=#647687;strokeColor=#314354;shadow=0;fontColor=#CCCCCC;" edge="1" parent="1" target="143" source="126">
                    <mxGeometry relative="1" as="geometry">
                        <mxPoint x="605" y="-130" as="sourcePoint"/>
                        <mxPoint x="65" y="-230" as="targetPoint"/>
                    </mxGeometry>
                </mxCell>
                <mxCell id="145" value="isalate" style="whiteSpace=wrap;html=1;rounded=1;arcSize=50;align=center;verticalAlign=middle;strokeWidth=1;autosize=1;spacing=4;treeFolding=1;treeMoving=1;newEdgeStyle={&quot;edgeStyle&quot;:&quot;entityRelationEdgeStyle&quot;,&quot;startArrow&quot;:&quot;none&quot;,&quot;endArrow&quot;:&quot;none&quot;,&quot;segment&quot;:10,&quot;curved&quot;:1};fillColor=#647687;fontColor=#CCCCCC;strokeColor=#314354;" vertex="1" parent="1">
                    <mxGeometry x="540" y="-90" width="80" height="30" as="geometry"/>
                </mxCell>
                <mxCell id="146" value="" style="edgeStyle=entityRelationEdgeStyle;startArrow=none;endArrow=none;segment=10;curved=1;exitX=1;exitY=0.5;exitDx=0;exitDy=0;entryX=0;entryY=0.5;entryDx=0;entryDy=0;fillColor=#647687;strokeColor=#314354;shadow=0;fontColor=#CCCCCC;" edge="1" parent="1" target="145" source="126">
                    <mxGeometry relative="1" as="geometry">
                        <mxPoint x="440" y="-212.5" as="sourcePoint"/>
                        <mxPoint x="25" y="-317.5" as="targetPoint"/>
                    </mxGeometry>
                </mxCell>
                <mxCell id="148" value="LSB" style="whiteSpace=wrap;html=1;rounded=1;arcSize=50;align=center;verticalAlign=middle;strokeWidth=1;autosize=1;spacing=4;treeFolding=1;treeMoving=1;newEdgeStyle={&quot;edgeStyle&quot;:&quot;entityRelationEdgeStyle&quot;,&quot;startArrow&quot;:&quot;none&quot;,&quot;endArrow&quot;:&quot;none&quot;,&quot;segment&quot;:10,&quot;curved&quot;:1};fillColor=#6a00ff;fontColor=#ffffff;strokeColor=#3700CC;" vertex="1" parent="1">
                    <mxGeometry x="172.5" y="-390" width="60" height="30" as="geometry"/>
                </mxCell>
                <mxCell id="149" value="" style="edgeStyle=entityRelationEdgeStyle;startArrow=none;endArrow=none;segment=10;curved=1;exitX=0;exitY=0.5;exitDx=0;exitDy=0;fillColor=#647687;strokeColor=#314354;shadow=0;fontColor=#CCCCCC;" edge="1" parent="1" target="148" source="8">
                    <mxGeometry relative="1" as="geometry">
                        <mxPoint x="462.5" y="-400" as="sourcePoint"/>
                        <mxPoint x="-227.5" y="-540" as="targetPoint"/>
                    </mxGeometry>
                </mxCell>
            </root>
        </mxGraphModel>
    </diagram>
</mxfile>